# xmcd CD database file
#
# Track frame offsets:
#	150
#	23597
#	38439
#	70801
#	89483
#	113963
#	135145
#	151765
#	174500
#	193514
#	228972
#	251900
#	286916
#
# Disc length: 4123 seconds
#
# Revision: 0
# Processed by: cddbd v1.5.2PL0 Copyright (c) Steve Scherf et al.
# Submitted via: CDex 1.70beta2
#
DISCID=9d10190d
DTITLE=Matt Andersen - Live From The Phoenix Theatre
DYEAR=2009
DGENRE=Blues
TTITLE0=Better Man Blues
TTITLE1=One Size Never Fits
TTITLE2=Play The Fool For You
TTITLE3=Something In Between
TTITLE4=When My Angel Gets The Blues
TTITLE5=Bold And Beaten
TTITLE6=If I Can't Have You
TTITLE7=To Leave What Should Be Left Alone
TTITLE8=Working Man Blues
TTITLE9=So Gone Now
TTITLE10=Devil's Bride
TTITLE11=Have You Got The Blues
TTITLE12=Round And Round
EXTD=YEAR: 2009
EXTT0=
EXTT1=
EXTT2=
EXTT3=
EXTT4=
EXTT5=
EXTT6=
EXTT7=
EXTT8=
EXTT9=
EXTT10=
EXTT11=
EXTT12=
PLAYORDER=
